<svg viewBox="0 0 22 19" xmlns="http://www.w3.org/2000/svg"><path fill-rule="evenodd" clip-rule="evenodd" d="M18.707 1.707A1 1 0 0017.293.293L13.2 4.386A9.993 9.993 0 003.929 7.07L1.1 9.899a1 1 0 000 1.415l2.585 2.585-3.393 3.394a1 1 0 101.414 1.414l17-17zM5.101 12.485l1.936-1.936a4.001 4.001 0 012.499-4.272 7.963 7.963 0 00-4.193 2.208l-2.121 2.122L5.1 12.485z"/><path d="M8.532 14.682a8 8 0 008.125-1.954l2.121-2.121-2.121-2.122a8.06 8.06 0 00-1.046-.882l1.43-1.43c.36.271.703.571 1.03.898L20.9 9.899a1 1 0 010 1.415l-2.828 2.828a10.004 10.004 0 01-11.088 2.09l1.549-1.55z"/><path d="M9.503 13.71a4 4 0 005.207-5.207l-5.207 5.208z"/></svg>